<svg xmlns="http://www.w3.org/2000/svg" viewBox="-140 -42.5 1080 1080"><rect x="-140" y="-42.5" width="1080" height="1080" rx="200" fill="#181616"/><path fill="#e8e6f4" fill-rule="evenodd" d="M539 78.5Q539 78 541.5 78Q544 78 544.5 79Q545 80 545.5 113Q546 146 544.5 165Q543 184 540 202Q537 220 546 226.5Q555 233 566.5 244.5Q578 256 588 269.5Q598 283 605 296.5Q612 310 613 309.5Q614 309 613.5 306Q613 303 603 282.5Q593 262 586 252.5Q579 243 577.5 242.5Q576 242 572 237Q568 232 562.5 227.5Q557 223 552 220.5Q547 218 552.5 218.5Q558 219 564 223.5Q570 228 576 234Q582 240 589.5 250Q597 260 606 278Q615 296 620 311.5Q625 327 629 349Q633 371 633 395Q633 419 629.5 436.5Q626 454 626.5 465Q627 476 631.5 492Q636 508 639.5 513.5Q643 519 648 523Q653 527 650 527.5Q647 528 641.5 524.5Q636 521 630 514.5Q624 508 622 503.5Q620 499 617 498Q614 497 611.5 500Q609 503 606 504Q603 505 602.5 508.5Q602 512 600 515.5Q598 519 598 521Q598 523 599 523Q600 523 599 525.5Q598 528 599 528Q600 528 600 529Q600 530 597 530.5Q594 531 594.5 533.5Q595 536 593.5 539Q592 542 591 550.5Q590 559 588.5 559Q587 559 587.5 557.5Q588 556 587 556Q586 556 587 555.5Q588 555 589 543Q590 531 590 528.5Q590 526 589 526Q588 526 589 525.5Q590 525 590 522.5Q590 520 589 520Q588 520 588 519Q588 518 589 518Q590 518 590 503.5Q590 489 589 489Q588 489 588 488Q588 487 589 486.5Q590 486 588 474Q586 462 585 460.5Q584 459 581.5 458.5Q579 458 580 456.5Q581 455 579.5 454.5Q578 454 578 453Q578 452 579 452Q580 452 579 451Q578 450 578.5 446.5Q579 443 577.5 441Q576 439 576 437Q576 435 579.5 435.5Q583 436 584 435Q585 434 582 417Q579 400 578 399Q577 398 575 388Q573 378 566 357.5Q559 337 552 322.5Q545 308 541.5 304Q538 300 538 299Q538 298 539 298Q540 298 540.5 299.5Q541 301 540 300.5Q539 300 539 298.5Q539 297 537.5 296.5Q536 296 535 293Q534 290 534.5 291Q535 292 536 291.5Q537 291 536.5 292Q536 293 537 292.5Q538 292 537.5 293Q537 294 538 294Q539 294 541 297Q543 300 543 302.5Q543 305 544 304Q545 303 545 304.5Q545 306 552.5 319Q560 332 569 356.5Q578 381 582 397Q586 413 588 429.5Q590 446 594.5 459.5Q599 473 600 486.5Q601 500 602 501.5Q603 503 605 502Q607 501 607.5 495.5Q608 490 609 489.5Q610 489 610 484Q610 479 608 474.5Q606 470 606 466.5Q606 463 605 463Q604 463 604.5 460Q605 457 604 457Q603 457 603 456Q603 455 604 453.5Q605 452 605.5 457Q606 462 607.5 465Q609 468 608.5 469Q608 470 610 472Q612 474 613.5 473.5Q615 473 617.5 462.5Q620 452 620 437Q620 422 623 405Q626 388 626 381.5Q626 375 620.5 351.5Q615 328 610 317.5Q605 307 599 298.5Q593 290 592 290Q591 290 591 289Q591 288 592 288Q593 288 593 285.5Q593 283 590 280Q587 277 586.5 275Q586 273 579.5 265Q573 257 556 241.5Q539 226 537 226.5Q535 227 534 233Q533 239 531.5 239.5Q530 240 530 241Q530 242 529 241Q528 240 533.5 206Q539 172 540 154.5Q541 137 540.5 111.5Q540 86 538.5 85.5Q537 85 534 86.5Q531 88 517 97Q503 106 483.5 122Q464 138 447.5 155Q431 172 429.5 172Q428 172 428 173Q428 174 427 173Q426 172 426 169.5Q426 167 454 141Q482 115 499.5 102.5Q517 90 528 84.5Q539 79 539 78.5ZM525 106.5Q525 106 526 106Q527 106 527 107.5Q527 109 515 119Q503 129 492 140.5Q481 152 480 152Q479 152 479 153Q479 154 478 154Q477 154 477 152Q477 150 478.5 148.5Q480 147 481 147Q482 147 492 136.5Q502 126 513.5 116.5Q525 107 525 106.5ZM144 116.5Q144 116 146.5 116Q149 116 157 120Q165 124 183 135.5Q201 147 221.5 163.5Q242 180 246.5 185Q251 190 252 190Q253 190 254.5 193Q256 196 263.5 197.5Q271 199 273.5 199Q276 199 276 198Q276 197 277 197Q278 197 278 198Q278 199 289.5 200Q301 201 286 202.5Q271 204 270.5 205.5Q270 207 262.5 207Q255 207 248.5 208.5Q242 210 240.5 211.5Q239 213 236.5 213Q234 213 242 204.5Q250 196 226 175.5Q202 155 188 145.5Q174 136 162.5 130Q151 124 151 131.5Q151 139 154 154.5Q157 170 165 190.5Q173 211 174.5 212Q176 213 176 214Q176 215 174.5 215.5Q173 216 170.5 208Q168 200 167 199Q166 198 165 199Q164 200 170.5 221.5Q177 243 180.5 251Q184 259 184 261.5Q184 264 182.5 265Q181 266 178.5 259Q176 252 174.5 250.5Q173 249 164.5 257.5Q156 266 152 271.5Q148 277 148 275Q148 273 152 268Q156 263 155.5 262Q155 261 153.5 261.5Q152 262 147.5 267.5Q143 273 142.5 275Q142 277 140.5 277.5Q139 278 138.5 280.5Q138 283 134.5 287.5Q131 292 123 309.5Q115 327 112.5 335Q110 343 111 345Q112 347 111 347Q110 347 109.5 350.5Q109 354 107.5 356Q106 358 107.5 360Q109 362 108 362Q107 362 105 367Q103 372 104 374.5Q105 377 104 377Q103 377 102 380Q101 383 98.5 399Q96 415 97 416.5Q98 418 97 418Q96 418 95 430Q94 442 93.5 471Q93 500 93.5 505.5Q94 511 95 511Q96 511 96 512Q96 513 95 513Q94 513 94 517Q94 521 93 521Q92 521 91 519Q90 517 90 513Q90 509 89 509Q88 509 89 508.5Q90 508 90 506.5Q90 505 89 502Q88 499 87.5 486.5Q87 474 86 474Q85 474 85 473Q85 472 86 472Q87 472 87 455.5Q87 439 91.5 404.5Q96 370 100 357.5Q104 345 104.5 340.5Q105 336 102 336.5Q99 337 100 338.5Q101 340 100 340Q99 340 95.5 345.5Q92 351 92 352.5Q92 354 90.5 355Q89 356 88 360.5Q87 365 82 373Q77 381 76.5 384.5Q76 388 71 400Q66 412 67 412.5Q68 413 68 414Q68 415 67 415Q66 415 65 421Q64 427 64 451Q64 475 65 475.5Q66 476 65 476Q64 476 64.5 479Q65 482 64 482.5Q63 483 64.5 483.5Q66 484 65.5 483.5Q65 483 65 484Q65 485 63.5 485.5Q62 486 62 496Q62 506 63 506Q64 506 63 508.5Q62 511 65.5 529Q69 547 74 560.5Q79 574 81 576.5Q83 579 87.5 590.5Q92 602 93 602Q94 602 93 603.5Q92 605 93.5 605.5Q95 606 96.5 610.5Q98 615 100 616.5Q102 618 104.5 624.5Q107 631 108 632Q109 633 110 632.5Q111 632 110.5 629.5Q110 627 107.5 622.5Q105 618 102.5 609.5Q100 601 97.5 597Q95 593 94 588.5Q93 584 92 583.5Q91 583 90 580Q89 577 89 576Q89 575 90 575.5Q91 576 91 578Q91 580 95 587.5Q99 595 98.5 596Q98 597 99 596.5Q100 596 99.5 598Q99 600 100 600Q101 600 103 607Q105 614 110.5 625Q116 636 124.5 659Q133 682 136.5 688Q140 694 140 696Q140 698 141 698Q142 698 141 699Q140 700 141 700.5Q142 701 147 715Q152 729 154.5 733Q157 737 156.5 738.5Q156 740 154.5 737Q153 734 151.5 735Q150 736 156 752Q162 768 168 792Q174 816 175.5 829Q177 842 178 847Q179 852 180 852.5Q181 853 181 871Q181 889 183 891.5Q185 894 186.5 894.5Q188 895 188.5 894Q189 893 189 894Q189 895 190 895Q191 895 195.5 901Q200 907 205 911.5Q210 916 219.5 922Q229 928 228.5 929Q228 930 226 930Q224 930 214.5 923Q205 916 204 916Q203 916 203 918Q203 920 202 920Q201 920 201 918.5Q201 917 198 915.5Q195 914 195 912.5Q195 911 189 904Q183 897 181.5 897.5Q180 898 180 901Q180 904 179 904Q178 904 178 900.5Q178 897 177 897Q176 897 177 894.5Q178 892 177 891Q176 890 175.5 882Q175 874 174 872Q173 870 174 867.5Q175 865 173.5 862.5Q172 860 168.5 840Q165 820 157.5 792Q150 764 139 732.5Q128 701 125 697.5Q122 694 123.5 694Q125 694 124 689Q123 684 119 675.5Q115 667 113 666Q111 665 112.5 665Q114 665 112.5 662.5Q111 660 110 660.5Q109 661 110 659Q111 657 108 654.5Q105 652 89.5 619Q74 586 69 570Q64 554 61 537.5Q58 521 56.5 520Q55 519 55 521.5Q55 524 54 524.5Q53 525 51.5 511Q50 497 50 484.5Q50 472 53.5 444.5Q57 417 57 410.5Q57 404 60.5 391.5Q64 379 70.5 362Q77 345 84 331.5Q91 318 97.5 310.5Q104 303 109.5 294.5Q115 286 131.5 268.5Q148 251 158.5 243Q169 235 167 227Q165 219 163.5 218Q162 217 163 216Q164 215 157.5 191Q151 167 147.5 143Q144 119 143 119Q142 119 143 118Q144 117 144 116.5ZM532 126.5Q532 126 533 126Q534 126 534.5 127.5Q535 129 534 129Q533 129 530 134Q527 139 515 152Q503 165 500 169.5Q497 174 495.5 173.5Q494 173 494 172Q494 171 496 170Q498 169 498 168Q498 167 511 153Q524 139 528 133Q532 127 532 126.5ZM161 140.5Q161 140 162 140Q163 140 166 144.5Q169 149 183.5 172.5Q198 196 196.5 197Q195 198 186 182Q177 166 169 155Q161 144 161 142.5Q161 141 161 140.5ZM352 148.5Q352 148 353.5 148.5Q355 149 352.5 150.5Q350 152 346 151.5Q342 151 342.5 150Q343 149 347.5 149Q352 149 352 148.5ZM483 174.5Q483 174 484 174Q485 174 489.5 183Q494 192 493.5 193Q493 194 492 194Q491 194 488.5 188Q486 182 484.5 181Q483 180 478 188Q473 196 472 196Q471 196 468.5 190Q466 184 464.5 183Q463 182 458 190Q453 198 451.5 197.5Q450 197 456.5 186.5Q463 176 464 176Q465 176 467.5 182Q470 188 471.5 189Q473 190 478 182.5Q483 175 483 174.5ZM383 175.5Q383 175 408.5 176Q434 177 438.5 178.5Q443 180 443 182Q443 184 445 185Q447 186 445 186.5Q443 187 433.5 185Q424 183 404 183Q384 183 370.5 185.5Q357 188 353 190Q349 192 345.5 192Q342 192 338.5 193.5Q335 195 332.5 197.5Q330 200 328.5 200Q327 200 329.5 195Q332 190 337 187Q342 184 355 180.5Q368 177 375.5 176.5Q383 176 383 175.5ZM312 184.5Q312 184 313 184.5Q314 185 314 188Q314 191 315.5 192.5Q317 194 316.5 195Q316 196 314.5 194.5Q313 193 312.5 189Q312 185 312 184.5ZM195 208.5Q195 208 196 208Q197 208 200.5 218Q204 228 208.5 221Q213 214 214 214Q215 214 217.5 222.5Q220 231 222 234Q224 237 224 238Q224 239 222.5 239.5Q221 240 217.5 230Q214 220 209.5 227Q205 234 204 234Q203 234 199.5 224.5Q196 215 192.5 221.5Q189 228 188 228Q187 228 186.5 227Q186 226 190.5 217.5Q195 209 195 208.5ZM452 245.5Q452 245 456 247.5Q460 250 460 251.5Q460 253 460 252Q460 251 461.5 251.5Q463 252 463 253Q463 254 461.5 254.5Q460 255 458 252Q456 249 454.5 248Q453 247 452 247.5Q451 248 451.5 247Q452 246 452 245.5ZM463 254.5Q463 254 466.5 256Q470 258 470 259Q470 260 468.5 260.5Q467 261 466 259Q465 257 463.5 257Q462 257 462.5 256Q463 255 463 254.5ZM422 256.5Q422 256 424.5 257.5Q427 259 428 259Q429 259 428 258Q427 257 428 256.5Q429 256 430.5 258Q432 260 434.5 260.5Q437 261 437 262Q437 263 435.5 263.5Q434 264 433 262.5Q432 261 430 261Q428 261 425 259Q422 257 422 256.5ZM470 260.5Q470 260 473.5 262.5Q477 265 477 266Q477 267 475.5 267.5Q474 268 474 267Q474 266 471.5 264.5Q469 263 469.5 262Q470 261 470 260.5ZM438 267.5Q438 267 440 266.5Q442 266 450 272.5Q458 279 465.5 291Q473 303 483 326Q493 349 495.5 351Q498 353 499.5 353Q501 353 501.5 352Q502 351 502 353Q502 355 500 356.5Q498 358 498 359Q498 360 499 360Q500 360 499 361.5Q498 363 499 363.5Q500 364 499 364Q498 364 497.5 373Q497 382 498 383.5Q499 385 498 385Q497 385 497 386.5Q497 388 494.5 376Q492 364 489.5 362.5Q487 361 483 363.5Q479 366 481 383Q483 400 484 401.5Q485 403 487 403Q489 403 493.5 400.5Q498 398 497.5 393Q497 388 498 389Q499 390 499 392.5Q499 395 501 395Q503 395 504.5 393Q506 391 506 389Q506 387 507.5 387Q509 387 511.5 383.5Q514 380 515.5 380Q517 380 516.5 379.5Q516 379 514.5 385Q513 391 511 394Q509 397 510.5 400Q512 403 518 403Q524 403 524 399.5Q524 396 526 397.5Q528 399 531 399Q534 399 536.5 397Q539 395 539.5 391.5Q540 388 535.5 373Q531 358 523.5 340.5Q516 323 509.5 311.5Q503 300 500 297.5Q497 295 497.5 294Q498 293 495.5 291.5Q493 290 493.5 289Q494 288 492.5 287.5Q491 287 490.5 285Q490 283 488.5 282.5Q487 282 485 279Q483 276 482 276Q481 276 478.5 272Q476 268 477.5 267.5Q479 267 478.5 268.5Q478 270 480 271.5Q482 273 482.5 272Q483 271 481 270Q479 269 479 270.5Q479 272 480 273Q481 274 482.5 273.5Q484 273 484 275Q484 277 485.5 276.5Q487 276 486.5 277.5Q486 279 488 279Q490 279 490 280.5Q490 282 491 282Q492 282 491.5 283.5Q491 285 492.5 284.5Q494 284 493.5 285Q493 286 495.5 287.5Q498 289 498 291Q498 293 499 292.5Q500 292 502 294.5Q504 297 504.5 299.5Q505 302 509.5 308Q514 314 520 326Q526 338 527.5 341.5Q529 345 528 346Q527 347 527.5 348.5Q528 350 529 348.5Q530 347 530.5 350.5Q531 354 535.5 365Q540 376 541 382Q542 388 543.5 390.5Q545 393 545 398.5Q545 404 546 404.5Q547 405 548 412.5Q549 420 550 420Q551 420 550 421.5Q549 423 550 425Q551 427 552.5 446.5Q554 466 555 468.5Q556 471 555.5 472.5Q555 474 554 474Q553 474 553.5 472.5Q554 471 553 471Q552 471 552 461Q552 451 551 450.5Q550 450 550.5 447.5Q551 445 550 443.5Q549 442 549 437Q549 432 548 430.5Q547 429 545.5 416.5Q544 404 541.5 403Q539 402 538 403.5Q537 405 533.5 406.5Q530 408 530.5 410.5Q531 413 533.5 413.5Q536 414 532.5 414.5Q529 415 530 415.5Q531 416 531 417Q531 418 530 418Q529 418 530 437.5Q531 457 533.5 470.5Q536 484 541.5 501.5Q547 519 546 522Q545 525 547 535.5Q549 546 548.5 556.5Q548 567 549 567Q550 567 550 568Q550 569 549 568.5Q548 568 547 569Q546 570 545 574Q544 578 540 585.5Q536 593 533.5 595.5Q531 598 531 599.5Q531 601 534 602.5Q537 604 538.5 608Q540 612 551.5 669.5Q563 727 570 753Q577 779 582.5 794Q588 809 592.5 816Q597 823 597.5 825.5Q598 828 601.5 832Q605 836 606 839Q607 842 610.5 845Q614 848 616 852Q618 856 628.5 867Q639 878 648.5 884.5Q658 891 658.5 892.5Q659 894 657.5 894Q656 894 655 892.5Q654 891 652 890.5Q650 890 650 892Q650 894 658 899.5Q666 905 666 906Q666 907 664.5 907Q663 907 659 905Q655 903 652.5 900Q650 897 648 898Q646 899 643 896.5Q640 894 637.5 893.5Q635 893 630.5 889.5Q626 886 619.5 883Q613 880 609 876.5Q605 873 603.5 873Q602 873 601.5 871.5Q601 870 587 857Q573 844 560 828.5Q547 813 549 813.5Q551 814 560 825Q569 836 570.5 836.5Q572 837 586 851Q600 865 612.5 874Q625 883 633.5 887.5Q642 892 644 894.5Q646 897 647 896Q648 895 628 874Q608 853 603.5 846.5Q599 840 592 826.5Q585 813 584 809Q583 805 582 804.5Q581 804 577.5 794.5Q574 785 573.5 780.5Q573 776 572 775.5Q571 775 571 772Q571 769 570 768.5Q569 768 569 766.5Q569 765 568 765Q567 765 568 763.5Q569 762 567.5 759.5Q566 757 566 753.5Q566 750 563.5 748Q561 746 562 745.5Q563 745 562.5 740Q562 735 561.5 732.5Q561 730 559.5 729.5Q558 729 557.5 727.5Q557 726 557 719Q557 712 555 710Q553 708 551.5 709.5Q550 711 545.5 682.5Q541 654 540 652.5Q539 651 539 646Q539 641 534.5 622Q530 603 527 605Q524 607 515 621.5Q506 636 496.5 645.5Q487 655 484.5 658Q482 661 482 662.5Q482 664 477.5 669Q473 674 472.5 676Q472 678 466 684Q460 690 454.5 703Q449 716 432 718.5Q415 721 403 721Q391 721 383 719.5Q375 718 371.5 718Q368 718 367 719Q366 720 368.5 742Q371 764 375 781Q379 798 384.5 813Q390 828 397 841.5Q404 855 406.5 857Q409 859 409 860.5Q409 862 407 861Q405 860 405.5 859Q406 858 399.5 850Q393 842 386.5 829Q380 816 373.5 796.5Q367 777 365.5 775Q364 773 363 765Q362 757 361 754.5Q360 752 359 752Q358 752 359 751.5Q360 751 360 750Q360 749 359 749Q358 749 359 748.5Q360 748 359 744.5Q358 741 356 739Q354 737 350 735.5Q346 734 344 731.5Q342 729 338 727.5Q334 726 333 724Q332 722 328.5 720Q325 718 322 718Q319 718 317.5 716Q316 714 313.5 713.5Q311 713 310 711.5Q309 710 299.5 704.5Q290 699 288 696.5Q286 694 284 693.5Q282 693 279.5 690Q277 687 273 684.5Q269 682 266.5 678.5Q264 675 262.5 675Q261 675 260 673Q259 671 257 670Q255 669 255.5 670.5Q256 672 255 672Q254 672 249.5 666Q245 660 239 656Q233 652 233 650.5Q233 649 231.5 649.5Q230 650 230 649Q230 648 231.5 647.5Q233 647 234 649.5Q235 652 237.5 652.5Q240 653 241 654.5Q242 656 243.5 656Q245 656 246 657.5Q247 659 248.5 659Q250 659 252 661Q254 663 261 666.5Q268 670 270 670Q272 670 274 672Q276 674 303 684.5Q330 695 351 700Q372 705 384 706.5Q396 708 401 710Q406 712 424.5 712.5Q443 713 448 700Q453 687 457 681.5Q461 676 461.5 673.5Q462 671 477 655Q492 639 498.5 628.5Q505 618 513.5 607Q522 596 525.5 588.5Q529 581 531.5 571Q534 561 535 542Q536 523 533.5 512.5Q531 502 528.5 500Q526 498 523.5 498.5Q521 499 513.5 497Q506 495 506 494Q506 493 515 494Q524 495 524.5 496Q525 497 527.5 495Q530 493 529 491Q528 489 526 469Q524 449 524 432Q524 415 522 414Q520 413 518.5 414Q517 415 517 427Q517 439 516 444.5Q515 450 510.5 458.5Q506 467 505.5 463.5Q505 460 508 446Q511 432 510.5 424Q510 416 507 415Q504 414 497 416Q490 418 488 419.5Q486 421 488 422.5Q490 424 491.5 427Q493 430 494.5 438.5Q496 447 495 460Q494 473 491 481.5Q488 490 490 490.5Q492 491 493.5 489Q495 487 496.5 487Q498 487 498 490Q498 493 496.5 496Q495 499 490 503.5Q485 508 477.5 510.5Q470 513 470 515Q470 517 473.5 518.5Q477 520 478.5 522Q480 524 476 523.5Q472 523 467 520.5Q462 518 459.5 515.5Q457 513 455.5 514Q454 515 448 501.5Q442 488 441 478Q440 468 442 459Q444 450 449.5 439.5Q455 429 456 425Q457 421 461 416Q465 411 468.5 408.5Q472 406 471 405.5Q470 405 471 402.5Q472 400 475 398.5Q478 397 478 388Q478 379 477 375.5Q476 372 474 371Q472 370 467 376Q462 382 462.5 389.5Q463 397 461.5 398Q460 399 460 396.5Q460 394 459 394Q458 394 459 392.5Q460 391 458 389.5Q456 388 453.5 391.5Q451 395 449.5 400.5Q448 406 447 406Q446 406 446 405Q446 404 445 404.5Q444 405 445 403.5Q446 402 443.5 398.5Q441 395 442 395Q443 395 446 387Q449 379 450 378.5Q451 378 451 370Q451 362 449.5 353Q448 344 447 340.5Q446 337 445 337Q444 337 444 336Q444 335 445 335Q446 335 446 333.5Q446 332 445 332Q444 332 445 329Q446 326 444 322Q442 318 439 316Q436 314 437 313Q438 312 435 309Q432 306 432 303.5Q432 301 436.5 305Q441 309 443 315Q445 321 446 321.5Q447 322 448 327Q449 332 450 332Q451 332 450 333Q449 334 450 335Q451 336 453 352.5Q455 369 457.5 370Q460 371 465 366.5Q470 362 469.5 356.5Q469 351 462.5 337.5Q456 324 448.5 313.5Q441 303 436 298Q431 293 427 291Q423 289 420.5 286Q418 283 414.5 282Q411 281 411 280Q411 279 413 279.5Q415 280 416 278Q417 276 418.5 278.5Q420 281 427.5 286Q435 291 440.5 297Q446 303 449 308Q452 313 454 314.5Q456 316 461.5 327Q467 338 468.5 339Q470 340 473 349Q476 358 481 357Q486 356 487 352.5Q488 349 482.5 334.5Q477 320 473 313.5Q469 307 468.5 304.5Q468 302 464.5 297.5Q461 293 461 291.5Q461 290 455.5 285.5Q450 281 450.5 280Q451 279 453 280.5Q455 282 453 279.5Q451 277 449.5 277Q448 277 444.5 272.5Q441 268 439.5 268Q438 268 438 267.5ZM204 310.5Q204 310 205 310.5Q206 311 204.5 313Q203 315 204 316.5Q205 318 204 318Q203 318 201 322.5Q199 327 196 335.5Q193 344 193 346.5Q193 349 192.5 348Q192 347 191 347.5Q190 348 191 350Q192 352 188.5 361Q185 370 181 396.5Q177 423 177 425.5Q177 428 178 428Q179 428 178 428.5Q177 429 178 456.5Q179 484 180.5 489Q182 494 182 498Q182 502 183 504.5Q184 507 185 507Q186 507 185 507.5Q184 508 185 510Q186 512 184.5 512.5Q183 513 182 510.5Q181 508 180.5 502.5Q180 497 179 495.5Q178 494 179 492Q180 490 178 487Q176 484 174.5 468Q173 452 173.5 440Q174 428 173 428Q172 428 173 427.5Q174 427 174 419.5Q174 412 175 408.5Q176 405 175 403.5Q174 402 175 402Q176 402 178.5 385.5Q181 369 182 368.5Q183 368 183.5 363.5Q184 359 185.5 357.5Q187 356 187 352.5Q187 349 190 340.5Q193 332 198.5 321.5Q204 311 204 310.5ZM403 321.5Q403 321 404 321Q405 321 404.5 322Q404 323 405.5 324.5Q407 326 406 327.5Q405 329 404.5 326.5Q404 324 403 324Q402 324 402.5 323Q403 322 403 321.5ZM409 332.5Q409 332 410 332Q411 332 410.5 333Q410 334 413 339Q416 344 415.5 347Q415 350 414 350Q413 350 413.5 348Q414 346 411 340.5Q408 335 408.5 334Q409 333 409 332.5ZM283 333.5Q283 333 284.5 334Q286 335 288 339Q290 343 292.5 358Q295 373 295 399.5Q295 426 296.5 428Q298 430 296 430.5Q294 431 292.5 448.5Q291 466 291.5 470Q292 474 296.5 475Q301 476 303 473.5Q305 471 309.5 453.5Q314 436 315 435Q316 434 318 423Q320 412 321 411Q322 410 324.5 387Q327 364 326 353Q325 342 323 340Q321 338 322.5 338Q324 338 328 346Q332 354 333.5 362.5Q335 371 337.5 377Q340 383 345 402.5Q350 422 351 431.5Q352 441 353 441Q354 441 353 441.5Q352 442 352 443.5Q352 445 353.5 452Q355 459 355.5 475.5Q356 492 357.5 492.5Q359 493 360.5 491Q362 489 365 479Q368 469 367 467.5Q366 466 367 466Q368 466 369 463Q370 460 371.5 459.5Q373 459 373.5 463Q374 467 375 467Q376 467 375 467.5Q374 468 374 470.5Q374 473 377.5 499.5Q381 526 382.5 525Q384 524 384.5 521Q385 518 387 516Q389 514 389 512.5Q389 511 396.5 497.5Q404 484 411 463Q418 442 420.5 423Q423 404 423 402.5Q423 401 422 401Q421 401 422 400.5Q423 400 423 395Q423 390 422 390Q421 390 422 389.5Q423 389 423 387Q423 385 419 367.5Q415 350 415.5 348.5Q416 347 417 347Q418 347 422 364.5Q426 382 426 400Q426 418 424 428.5Q422 439 422 446.5Q422 454 411.5 479.5Q401 505 394.5 514.5Q388 524 382.5 529.5Q377 535 374.5 511.5Q372 488 370 487.5Q368 487 361.5 504Q355 521 351.5 526Q348 531 348.5 532Q349 533 348 533Q347 533 347 525.5Q347 518 348.5 516Q350 514 349 512.5Q348 511 349 511Q350 511 351 506.5Q352 502 351 479Q350 456 343.5 422Q337 388 334.5 379Q332 370 331 368.5Q330 367 329 367.5Q328 368 328 374Q328 380 329 380Q330 380 330 381Q330 382 329 382Q328 382 326.5 400.5Q325 419 319 440Q313 461 309.5 468.5Q306 476 307 478Q308 480 311 481Q314 482 318 486Q322 490 322 491Q322 492 321 492Q320 492 318 489.5Q316 487 311 487Q306 487 309 491.5Q312 496 315.5 505.5Q319 515 319 518.5Q319 522 320 522Q321 522 320 522.5Q319 523 319 530.5Q319 538 315 549Q311 560 312 561Q313 562 317 561.5Q321 561 321 562Q321 563 320 563Q319 563 316.5 566Q314 569 302 573Q290 577 283.5 578Q277 579 269 578Q261 577 260 576Q259 575 265.5 574.5Q272 574 273 572.5Q274 571 269.5 567.5Q265 564 260.5 555.5Q256 547 252.5 535.5Q249 524 248 512Q247 500 245.5 499.5Q244 499 240 502Q236 505 227 516.5Q218 528 216.5 532Q215 536 219.5 540.5Q224 545 224 546.5Q224 548 222 548Q220 548 218.5 546.5Q217 545 213.5 544Q210 543 206.5 539Q203 535 201.5 535Q200 535 201 532Q202 529 202 523Q202 517 204 512.5Q206 508 209 505Q212 502 212 500.5Q212 499 205 494Q198 489 199.5 489Q201 489 201 490Q201 491 202.5 491.5Q204 492 210.5 493Q217 494 227.5 486.5Q238 479 239.5 476.5Q241 474 235 467.5Q229 461 235.5 464.5Q242 468 243.5 467Q245 466 245 467Q245 468 248 470.5Q251 473 268 473Q285 473 286.5 471Q288 469 288.5 465.5Q289 462 289.5 447Q290 432 288.5 430.5Q287 429 281.5 429Q276 429 273 429.5Q270 430 266 433.5Q262 437 257 436.5Q252 436 247 437Q242 438 241.5 439Q241 440 234.5 442Q228 444 223 447Q218 450 214 453Q210 456 210 457Q210 458 208 457Q206 456 205 457.5Q204 459 202.5 459Q201 459 200.5 456Q200 453 209 444Q218 435 229.5 429.5Q241 424 250.5 424Q260 424 260.5 423Q261 422 265 421.5Q269 421 269 422Q269 423 271 424Q273 425 281 425Q289 425 289.5 396.5Q290 368 289 361Q288 354 287 350.5Q286 347 285 347Q284 347 285 345.5Q286 344 285 343.5Q284 343 283.5 338.5Q283 334 283 333.5ZM52 349.5Q52 349 53 349Q54 349 54 350.5Q54 352 50.5 362Q47 372 44 388.5Q41 405 40 420Q39 435 39 449.5Q39 464 41 488.5Q43 513 48.5 544.5Q54 576 68.5 623.5Q83 671 87.5 691Q92 711 93.5 713.5Q95 716 96.5 716Q98 716 98 717Q98 718 96.5 717.5Q95 717 95 720.5Q95 724 99.5 742Q104 760 108 782Q112 804 115 828Q118 852 118.5 864Q119 876 118.5 889.5Q118 903 116.5 910.5Q115 918 114 918.5Q113 919 113.5 889.5Q114 860 112.5 842Q111 824 105.5 793Q100 762 99 758Q98 754 96.5 753.5Q95 753 94.5 756Q94 759 95.5 773.5Q97 788 96.5 804.5Q96 821 90 858.5Q84 896 83 900Q82 904 81 904.5Q80 905 80 907.5Q80 910 79 910Q78 910 84.5 869Q91 828 92 816Q93 804 92 776Q91 748 87.5 723.5Q84 699 79.5 679.5Q75 660 72.5 652Q70 644 67.5 642Q65 640 56 606.5Q47 573 42.5 546.5Q38 520 36.5 503.5Q35 487 34.5 461.5Q34 436 35 422.5Q36 409 39 392Q42 375 44.5 366.5Q47 358 48 357.5Q49 357 48 355.5Q47 354 49.5 352Q52 350 52 349.5ZM462 398.5Q462 398 464 399.5Q466 401 466 404.5Q466 408 465 408Q464 408 463 403.5Q462 399 462 398.5ZM457 405.5Q457 405 457.5 406Q458 407 457 407Q456 407 455 410.5Q454 414 451 418Q448 422 446.5 427Q445 432 442 432Q439 432 434.5 440Q430 448 428.5 449Q427 450 430 442Q433 434 435 432Q437 430 440 424.5Q443 419 443 417Q443 415 445 413Q447 411 446.5 409Q446 407 447 408.5Q448 410 449.5 410Q451 410 452 408.5Q453 407 455 406.5Q457 406 457 405.5ZM477 424.5Q477 424 479 424.5Q481 425 482.5 428.5Q484 432 485 436.5Q486 441 485 445.5Q484 450 469.5 463.5Q455 477 453 477.5Q451 478 450 476Q449 474 450.5 464.5Q452 455 455.5 447Q459 439 463 434.5Q467 430 472 427.5Q477 425 477 424.5ZM621 477.5Q621 477 622 477.5Q623 478 624.5 486.5Q626 495 627.5 497.5Q629 500 629 502Q629 504 627.5 504.5Q626 505 622 498.5Q618 492 618 487Q618 482 619.5 480Q621 478 621 477.5ZM293 484.5Q293 484 296.5 485Q300 486 302 488Q304 490 308 501Q312 512 311.5 516Q311 520 296.5 526.5Q282 533 272 535Q262 537 260 534.5Q258 532 256 521Q254 510 255 509.5Q256 509 255 508.5Q254 508 254 501.5Q254 495 255 494Q256 493 266 490Q276 487 284.5 486Q293 485 293 484.5ZM453 491.5Q453 491 455.5 492Q458 493 458 495Q458 497 459.5 498.5Q461 500 460 501.5Q459 503 461 504Q463 505 462.5 507Q462 509 459.5 507.5Q457 506 454.5 501.5Q452 497 452.5 494.5Q453 492 453 491.5ZM132 498.5Q132 498 133 498Q134 498 133.5 499.5Q133 501 134 501.5Q135 502 134.5 504.5Q134 507 132.5 504Q131 501 131.5 500Q132 499 132 498.5ZM498 501.5Q498 501 508.5 509.5Q519 518 519 519.5Q519 521 516 520Q513 519 505.5 510.5Q498 502 498 501.5ZM135 507.5Q135 507 136.5 508.5Q138 510 138 511.5Q138 513 139.5 513.5Q141 514 140.5 516Q140 518 141 517Q142 516 142.5 519Q143 522 144 522.5Q145 523 144.5 525Q144 527 143 527Q142 527 140.5 521Q139 515 137 513.5Q135 512 135 510Q135 508 135 507.5ZM154 508.5Q154 508 155.5 508Q157 508 156.5 509.5Q156 511 158 512.5Q160 514 159 516Q158 518 156 513.5Q154 509 154 508.5ZM491 507.5Q491 507 493 508.5Q495 510 500.5 519.5Q506 529 507 532.5Q508 536 509 536Q510 536 509.5 537.5Q509 539 507 537.5Q505 536 498 522Q491 508 491 507.5ZM159 518.5Q159 518 160.5 518Q162 518 163 519.5Q164 521 164 523Q164 525 167 531Q170 537 181.5 555Q193 573 205 586.5Q217 600 227 607.5Q237 615 241 617Q245 619 247 618Q249 617 249 618Q249 619 251.5 619.5Q254 620 260.5 624Q267 628 267.5 627Q268 626 269.5 627Q271 628 267.5 629Q264 630 261 628Q258 626 246 622Q234 618 232 615.5Q230 613 220.5 606Q211 599 196.5 581Q182 563 180.5 559Q179 555 172 544Q165 533 164.5 530.5Q164 528 161.5 525Q159 522 159.5 521.5Q160 521 161 523Q162 525 162.5 523.5Q163 522 161 520.5Q159 519 159 518.5ZM483 527.5Q483 527 479 536.5Q475 546 467.5 556Q460 566 459 566Q458 566 458.5 567Q459 568 464 566.5Q469 565 474 559.5Q479 554 482 547Q485 540 485 533.5Q485 527 484.5 528Q484 529 483.5 528.5Q483 528 483 527.5ZM146 532.5Q146 532 149 535.5Q152 539 153 539Q154 539 153 540Q152 541 157 548Q162 555 164.5 561Q167 567 168.5 567.5Q170 568 170.5 567Q171 566 173.5 573Q176 580 188 597.5Q200 615 213 625Q226 635 235.5 640Q245 645 246.5 644.5Q248 644 247.5 642Q247 640 244.5 638Q242 636 240 631.5Q238 627 236.5 626.5Q235 626 235 625Q235 624 237 623.5Q239 623 238.5 624Q238 625 241 628.5Q244 632 243.5 634Q243 636 244 636Q245 636 245 635Q245 634 250.5 640.5Q256 647 262.5 649.5Q269 652 264.5 652.5Q260 653 250.5 650Q241 647 232.5 642.5Q224 638 216.5 632Q209 626 207 626.5Q205 627 193 611.5Q181 596 177 588.5Q173 581 172.5 577.5Q172 574 171 573.5Q170 573 170 574Q170 575 169 575Q168 575 167.5 571.5Q167 568 165 566.5Q163 565 159.5 558Q156 551 153.5 548.5Q151 546 148.5 539.5Q146 533 146 532.5ZM192 532.5Q192 532 193 532Q194 532 195 534.5Q196 537 196 539.5Q196 542 194.5 543Q193 544 192 541.5Q191 539 191.5 536Q192 533 192 532.5ZM198 547.5Q198 547 199.5 548.5Q201 550 200 552.5Q199 555 197.5 552.5Q196 550 197.5 550.5Q199 551 198.5 549.5Q198 548 198 547.5ZM164 576.5Q164 576 167 578Q170 580 170 581Q170 582 169 582Q168 582 166 579.5Q164 577 164 576.5ZM296 584.5Q296 584 297 584Q298 584 300.5 587Q303 590 303 591Q303 592 301.5 591.5Q300 591 299.5 589Q299 587 297.5 586Q296 585 296 584.5ZM285 588.5Q285 588 286 588Q287 588 286.5 589Q286 590 288.5 593Q291 596 292.5 601Q294 606 299 615Q304 624 303.5 625.5Q303 627 302.5 625.5Q302 624 299 622Q296 620 295 617.5Q294 615 293 617Q292 619 291 613Q290 607 287 600Q284 593 284.5 591Q285 589 285 588.5ZM275 589.5Q275 589 277 592.5Q279 596 279 601Q279 606 283 619Q287 632 286 632.5Q285 633 285 632Q285 631 281 630.5Q277 630 279.5 629.5Q282 629 282 627.5Q282 626 279.5 619Q277 612 276.5 607Q276 602 277 602Q278 602 278 600.5Q278 599 276.5 594.5Q275 590 275 589.5ZM304 590.5Q304 590 309.5 597.5Q315 605 316 608.5Q317 612 320 615Q323 618 322.5 619Q322 620 316 613Q310 606 306.5 600Q303 594 303.5 592.5Q304 591 304 590.5ZM461 613.5Q461 613 464 614Q467 615 467 618Q467 621 462 626Q457 631 454.5 632Q452 633 450 632.5Q448 632 448 630.5Q448 629 454 624.5Q460 620 460.5 617Q461 614 461 613.5ZM204 633.5Q204 633 205.5 633Q207 633 210 637.5Q213 642 214.5 642.5Q216 643 215 644.5Q214 646 209 640Q204 634 204 633.5ZM359 635.5Q359 635 364 636.5Q369 638 380 639Q391 640 409.5 640Q428 640 430.5 639Q433 638 429.5 640Q426 642 417.5 643.5Q409 645 395 645Q381 645 377 643.5Q373 642 366.5 642.5Q360 643 357 641.5Q354 640 355 638Q356 636 357.5 636Q359 636 359 635.5ZM216 644.5Q216 644 223.5 655.5Q231 667 253 714.5Q275 762 290.5 788Q306 814 324 835Q342 856 351 863.5Q360 871 364.5 874Q369 877 372.5 878Q376 879 379 883Q382 887 383.5 886.5Q385 886 384 887.5Q383 889 378.5 885.5Q374 882 362.5 876.5Q351 871 347 868Q343 865 342 863Q341 861 340 862Q339 863 337.5 860.5Q336 858 331.5 855.5Q327 853 327 851.5Q327 850 322 847Q317 844 318 842.5Q319 841 317 838.5Q315 836 313.5 836Q312 836 310.5 833.5Q309 831 307 831.5Q305 832 299 824Q293 816 290 814Q287 812 287.5 811Q288 810 287 810Q286 810 284 807.5Q282 805 282 803.5Q282 802 280 800.5Q278 799 278 798Q278 797 279.5 796.5Q281 796 281 798.5Q281 801 282.5 801Q284 801 285.5 802.5Q287 804 286.5 805Q286 806 287.5 806.5Q289 807 288 807.5Q287 808 287.5 809Q288 810 289.5 809.5Q291 809 290 810.5Q289 812 290 812.5Q291 813 291.5 812Q292 811 292.5 813Q293 815 296.5 818Q300 821 299.5 822.5Q299 824 300.5 823Q302 822 301.5 824Q301 826 302.5 825Q304 824 303.5 826Q303 828 304 827.5Q305 827 304.5 828Q304 829 305.5 828.5Q307 828 310 830.5Q313 833 313.5 835Q314 837 310.5 835.5Q307 834 307 833Q307 832 308 832Q309 832 309 833Q309 834 310 834Q311 834 310.5 835.5Q310 837 313.5 839Q317 841 317.5 842.5Q318 844 320 844Q322 844 322.5 842.5Q323 841 313 828.5Q303 816 293.5 801Q284 786 267.5 753Q251 720 250 720Q249 720 248.5 721.5Q248 723 249 723.5Q250 724 254.5 745.5Q259 767 260 767Q261 767 259 768Q257 769 258.5 769.5Q260 770 258.5 770.5Q257 771 258 788.5Q259 806 258 806.5Q257 807 255.5 801.5Q254 796 254.5 792.5Q255 789 254 789Q253 789 254 787.5Q255 786 253.5 786Q252 786 253.5 785Q255 784 254 783.5Q253 783 253 782Q253 781 254 781Q255 781 254.5 771.5Q254 762 252.5 754Q251 746 249.5 743Q248 740 248 736.5Q248 733 240.5 709.5Q233 686 230 682.5Q227 679 226.5 677Q226 675 224.5 674.5Q223 674 222 669.5Q221 665 217.5 659.5Q214 654 214 651Q214 648 217.5 656.5Q221 665 222.5 667Q224 669 225 668.5Q226 668 225.5 664.5Q225 661 221 656Q217 651 217 649.5Q217 648 216 647.5Q215 647 215.5 646Q216 645 216 644.5ZM299 698.5Q299 698 303 701Q307 704 305.5 705Q304 706 301 703.5Q298 701 298.5 700Q299 699 299 698.5ZM329 709.5Q329 709 332.5 710Q336 711 337 712.5Q338 714 346 717.5Q354 721 356 723Q358 725 357.5 728.5Q357 732 356 732.5Q355 733 352.5 729.5Q350 726 341 720.5Q332 715 330 713Q328 711 328.5 710.5Q329 710 329 709.5ZM98 718.5Q98 718 101.5 723Q105 728 107 736.5Q109 745 110.5 746Q112 747 111 748Q110 749 111.5 751.5Q113 754 113.5 760Q114 766 115 767Q116 768 119.5 784.5Q123 801 127 811.5Q131 822 131.5 826Q132 830 142 852Q152 874 160 886.5Q168 899 167.5 900.5Q167 902 166 902Q165 902 161 894Q157 886 155.5 885.5Q154 885 153.5 886.5Q153 888 161 901Q169 914 174 918.5Q179 923 181 922.5Q183 922 183.5 923.5Q184 925 185.5 924Q187 923 182.5 916.5Q178 910 175.5 909Q173 908 172 909Q171 910 169 907.5Q167 905 167.5 904Q168 903 169.5 904.5Q171 906 169.5 903.5Q168 901 169 901Q170 901 172 904.5Q174 908 173 909.5Q172 911 173 911Q174 911 175 913.5Q176 916 178 917.5Q180 919 180 921.5Q180 924 182 925Q184 926 185 928Q186 930 186 931.5Q186 933 185 933Q184 933 184 931.5Q184 930 182 929.5Q180 929 179.5 927.5Q179 926 176 924.5Q173 923 174 921.5Q175 920 172.5 919.5Q170 919 169 916.5Q168 914 166 913Q164 912 154.5 896Q145 880 136.5 856.5Q128 833 121.5 808Q115 783 111.5 764Q108 745 103 732Q98 719 98 718.5ZM159 744.5Q159 744 161 747Q163 750 162.5 752Q162 754 160.5 749.5Q159 745 159 744.5ZM185 804.5Q185 804 188.5 807Q192 810 191 811Q190 812 187.5 808.5Q185 805 185 804.5ZM508 821.5Q508 821 522.5 849.5Q537 878 540 881Q543 884 548.5 893Q554 902 563 912Q572 922 572 923Q572 924 570.5 923.5Q569 923 563 917Q557 911 546 896.5Q535 882 527 867.5Q519 853 513.5 837.5Q508 822 508 821.5ZM547 828.5Q547 828 551.5 840Q556 852 556 853Q556 854 554.5 853Q553 852 550 840.5Q547 829 547 828.5ZM206 829.5Q206 829 208 829Q210 829 210.5 831Q211 833 214 835.5Q217 838 219 842Q221 846 221 843.5Q221 841 227.5 848.5Q234 856 235 856Q236 856 241 861.5Q246 867 249.5 869Q253 871 254 873Q255 875 258 876.5Q261 878 265.5 882.5Q270 887 272 887.5Q274 888 286.5 897.5Q299 907 300.5 907Q302 907 304 909.5Q306 912 308 911.5Q310 911 309 912.5Q308 914 306.5 913.5Q305 913 304.5 914.5Q304 916 300.5 912Q297 908 282 898.5Q267 889 259.5 882Q252 875 249.5 874Q247 873 239 865Q231 857 229.5 857Q228 857 228 855.5Q228 854 223 850Q218 846 212 838Q206 830 206 829.5ZM550 854.5Q550 854 551 854.5Q552 855 555 867Q558 879 559 880Q560 881 559.5 882Q559 883 558 881.5Q557 880 553.5 867.5Q550 855 550 854.5ZM559 859.5Q559 859 561 861.5Q563 864 562.5 865.5Q562 867 561 864.5Q560 862 558.5 861.5Q557 861 558 860.5Q559 860 559 859.5ZM563 867.5Q563 867 564 867Q565 867 573.5 877.5Q582 888 584 889Q586 890 584.5 891Q583 892 573 880Q563 868 563 867.5ZM560 883.5Q560 883 562 886.5Q564 890 564 891.5Q564 893 563 893Q562 893 561 888.5Q560 884 560 883.5ZM384 889.5Q384 889 386.5 888.5Q389 888 389 889Q389 890 393.5 892.5Q398 895 397 895.5Q396 896 392 893Q388 890 386 890Q384 890 384 889.5ZM660 892.5Q660 892 662.5 894.5Q665 897 664 897.5Q663 898 663 897Q663 896 661.5 896Q660 896 660 894.5Q660 893 660 892.5ZM349 903.5Q349 903 354.5 906.5Q360 910 369.5 920Q379 930 380 930Q381 930 380.5 931Q380 932 381 932Q382 932 381 933Q380 934 374 927Q368 920 358.5 912Q349 904 349 903.5ZM667 912.5Q667 912 672.5 914.5Q678 917 676.5 918Q675 919 673.5 917Q672 915 669.5 914Q667 913 667 912.5ZM325 918.5Q325 918 329.5 920Q334 922 333.5 923Q333 924 331.5 924Q330 924 330 923Q330 922 327.5 920.5Q325 919 325 918.5ZM204 920.5Q204 920 205 920Q206 920 206.5 922Q207 924 210.5 927Q214 930 212 930Q210 930 209 928Q208 926 205.5 924.5Q203 923 203.5 922Q204 921 204 920.5ZM573 924.5Q573 924 574 924Q575 924 576.5 926.5Q578 929 580 929Q582 929 580.5 930Q579 931 577 930Q575 929 574.5 927.5Q574 926 572.5 926Q571 926 572 925.5Q573 925 573 924.5ZM229 929.5Q229 929 230.5 929Q232 929 237.5 932.5Q243 936 242 936.5Q241 937 235 933.5Q229 930 229 929.5ZM342 929.5Q342 929 346.5 931Q351 933 349 933.5Q347 934 344.5 932Q342 930 342 929.5Z"></path></svg>